<svg xmlns="http://www.w3.org/2000/svg" xmlns:xlink="http://www.w3.org/1999/xlink" version="1.1" x="0px" y="0px" viewBox="0 0 32 32.74" style="enable-background:new 0 0 32 26.192;" xml:space="preserve"><g><path d="M31,9.192h-3.019c0.133,0,0.211,0.472,0.211,0.782c0,0.533-0.208,0.987-0.586,1.365l-1.122,1.099   c-0.378,0.378-0.88,0.573-1.414,0.573s-1.036-0.117-1.414-0.495l-3.414-3.324h-9.484L7.344,12.51   c-0.378,0.379-0.88,0.538-1.414,0.538s-1.036-0.231-1.414-0.609l-1.122-1.135c-0.378-0.378-0.586-0.789-0.586-1.323   c0-0.311,0.078-0.788,0.211-0.788H1c-0.553,0-1,0.255-1,0.808v2c0,0.553,0.447,1.192,1,1.192h1l2.606,11.295   c0.23,0.998,1.119,1.705,2.144,1.705h17.5c1.024,0,1.913-0.707,2.144-1.705L29,13.192h2c0.553,0,1-0.64,1-1.192v-2   C32,9.447,31.553,9.192,31,9.192z M8,20H6v-2h2V20z M8,16H6v-2h2V16z M12,24h-2v-2h2V24z M12,20h-2v-2h2V20z M12,16h-2v-2h2V16z    M16,24h-2v-2h2V24z M16,20h-2v-2h2V20z M16,16h-2v-2h2V16z M20,24h-2v-2h2V24z M20,20h-2v-2h2V20z M20,16h-2v-2h2V16z M24,20h-2   v-2h2V20z M24,16h-2v-2h2V16z"/><path d="M5.223,11.707C5.41,11.895,5.664,12,5.93,12s0.52-0.105,0.707-0.293L15.5,2.843l8.863,8.864   C24.551,11.895,24.805,12,25.07,12s0.52-0.105,0.707-0.293l1.122-1.122c0.188-0.188,0.293-0.441,0.293-0.707   s-0.105-0.52-0.293-0.707l-9.071-9.07c-0.391-0.391-1.023-0.391-1.414,0L15.5,1.015l-0.914-0.914c-0.391-0.391-1.023-0.391-1.414,0   l-9.071,9.07C3.913,9.358,3.808,9.612,3.808,9.878s0.105,0.52,0.293,0.707L5.223,11.707z M25,9c0.553,0,1,0.447,1,1s-0.447,1-1,1   s-1-0.447-1-1S24.447,9,25,9z M6,9c0.553,0,1,0.447,1,1s-0.447,1-1,1s-1-0.447-1-1S5.447,9,6,9z"/></g><text x="0" y="41.192" fill="#000000" font-size="5px" font-weight="bold" font-family="'Helvetica Neue', Helvetica, Arial-Unicode, Arial, Sans-serif">Created by Yo! Baba</text><text x="0" y="46.192" fill="#000000" font-size="5px" font-weight="bold" font-family="'Helvetica Neue', Helvetica, Arial-Unicode, Arial, Sans-serif">from the Noun Project</text></svg>