<svg xmlns="http://www.w3.org/2000/svg" xmlns:xlink="http://www.w3.org/1999/xlink" version="1.1" x="0px" y="0px" viewBox="0 0 24 30" enable-background="new 0 0 24 24" xml:space="preserve"><path d="M15.636,14.929L12.707,12l2.929-2.929c0.195-0.195,0.195-0.512,0-0.707s-0.512-0.195-0.707,0L12,11.293L9.071,8.364  c-0.195-0.195-0.512-0.195-0.707,0s-0.195,0.512,0,0.707L11.293,12l-2.929,2.929c-0.195,0.195-0.195,0.512,0,0.707  s0.512,0.195,0.707,0L12,12.707l2.929,2.929c0.195,0.195,0.512,0.195,0.707,0S15.831,15.124,15.636,14.929z"/><text x="0" y="39" fill="#000000" font-size="5px" font-weight="bold" font-family="'Helvetica Neue', Helvetica, Arial-Unicode, Arial, Sans-serif">Created by Tancrède Chaleil</text><text x="0" y="44" fill="#000000" font-size="5px" font-weight="bold" font-family="'Helvetica Neue', Helvetica, Arial-Unicode, Arial, Sans-serif">from the Noun Project</text></svg>